<?xml version="1.0" standalone="no"?>
<!DOCTYPE svg PUBLIC "-//W3C//DTD SVG 20010904//EN"
 "http://www.w3.org/TR/2001/REC-SVG-20010904/DTD/svg10.dtd">
<svg version="1.0" xmlns="http://www.w3.org/2000/svg"
 width="1920.000000pt" height="1920.000000pt" viewBox="0 0 1920.000000 1920.000000"
 preserveAspectRatio="xMidYMid meet">
<metadata>
Created by potrace 1.11, written by Peter Selinger 2001-2013
</metadata>
<g transform="translate(0.000000,1920.000000) scale(0.100000,-0.100000)"
fill="#000000" stroke="none">
<path d="M12241 17778 c-80 -12 -182 -65 -321 -168 l-123 -91 -68 2 -67 2 -12
43 c-16 58 -57 95 -112 101 -65 7 -112 -8 -116 -38 -2 -13 -34 -55 -71 -94
-69 -72 -199 -241 -305 -397 -33 -49 -67 -88 -75 -88 -25 -1 -61 -36 -61 -59
0 -14 -6 -21 -20 -21 -17 0 -20 -7 -20 -53 0 -69 -56 -189 -99 -212 -28 -14
-51 -58 -51 -95 0 -10 -7 -20 -15 -24 -11 -4 -15 -21 -15 -59 0 -45 -4 -57
-26 -78 -30 -28 -54 -70 -54 -96 0 -11 -28 -36 -76 -67 -394 -257 -684 -637
-787 -1032 -114 -439 1 -873 331 -1249 76 -86 266 -268 347 -332 68 -53 114
-108 138 -162 18 -41 19 -60 14 -196 -16 -404 -197 -1363 -305 -1616 -51 -117
-332 -289 -657 -402 -158 -54 -211 -64 -535 -101 -666 -77 -990 -96 -1304 -78
-657 39 -1123 205 -1585 566 -58 44 -202 178 -320 297 -315 315 -375 354 -656
424 -93 23 -228 65 -300 93 -141 54 -366 129 -485 161 -116 31 -364 79 -480
92 -170 19 -452 14 -615 -10 -353 -53 -608 -144 -1220 -436 -565 -270 -784
-361 -1160 -485 -121 -40 -224 -76 -228 -80 -4 -4 54 -31 130 -60 572 -221
972 -489 1477 -988 368 -364 610 -651 1317 -1562 438 -565 659 -828 914 -1089
410 -420 697 -628 1115 -806 493 -211 1056 -388 1748 -550 l23 -6 -20 -33 -21
-33 37 -34 c57 -55 129 -172 171 -282 282 -724 115 -2074 -288 -2329 -151 -96
-534 -129 -915 -79 -391 52 -655 112 -1548 352 -943 254 -1337 329 -1738 329
-128 0 -204 16 -369 77 -118 43 -422 191 -640 310 -334 183 -450 243 -626 321
-98 43 -189 82 -202 86 -18 6 -8 -17 63 -133 194 -323 304 -458 569 -701 75
-69 136 -127 136 -130 0 -3 -82 -5 -183 -6 -199 0 -269 -12 -360 -62 -62 -33
-130 -108 -145 -160 -31 -101 -3 -239 71 -354 44 -69 101 -113 176 -135 75
-21 253 -13 430 21 201 39 192 45 114 -81 -85 -138 -201 -370 -248 -498 -58
-156 -77 -239 -78 -345 -1 -90 1 -100 43 -200 24 -58 46 -109 50 -113 4 -4 44
56 90 133 136 229 284 391 519 568 329 248 794 471 1276 612 l136 39 104 -39
c167 -62 290 -118 640 -292 462 -229 641 -302 880 -362 282 -71 437 -82 955
-67 228 6 505 16 615 22 547 27 827 121 1062 355 171 170 297 411 398 759 72
250 87 339 93 531 6 255 -20 396 -148 804 -122 389 -152 539 -154 775 l-1 160
-55 6 c-30 4 -74 10 -97 14 l-42 7 -7 -37 c-11 -59 2 -372 20 -470 21 -113 82
-340 142 -527 96 -294 144 -529 144 -698 0 -202 -104 -607 -218 -849 -173
-370 -399 -533 -824 -595 -185 -27 -474 -41 -1073 -52 -392 -8 -511 2 -733 56
-263 65 -349 100 -867 355 -170 84 -341 168 -380 186 l-70 32 65 13 c36 7 77
13 93 14 l27 0 0 101 c0 91 2 100 18 95 9 -3 51 -14 92 -25 41 -11 118 -31
170 -46 52 -14 169 -46 260 -70 91 -24 201 -54 245 -65 128 -35 480 -119 606
-145 387 -80 653 -109 924 -102 372 9 568 70 711 219 131 136 229 332 309 617
107 383 138 957 75 1391 -44 305 -109 505 -230 704 -22 36 -22 38 -4 33 29 -9
458 -83 644 -111 556 -85 1112 -133 1659 -144 l325 -7 17 -69 c10 -38 33 -112
53 -165 20 -53 52 -150 72 -216 82 -277 225 -603 349 -800 287 -456 663 -731
1155 -844 197 -45 311 -56 625 -56 374 0 532 16 1280 125 599 88 959 128 1195
132 101 2 107 1 170 -31 118 -60 253 -164 580 -446 418 -359 614 -495 805
-555 54 -17 105 -23 230 -27 l160 -6 -245 254 c-204 211 -522 548 -742 786
-44 48 -48 56 -48 103 0 180 163 265 680 355 270 47 339 62 435 96 107 39 165
86 241 195 l63 91 -377 6 c-401 7 -546 20 -644 57 -71 26 -122 80 -143 152
-25 86 -35 284 -28 564 l6 261 -93 7 c-51 4 -95 4 -98 1 -3 -3 -16 -47 -29
-97 -98 -389 -435 -699 -1003 -923 -397 -156 -960 -281 -1640 -365 -232 -28
-810 -90 -842 -90 -103 0 -391 222 -632 488 -231 254 -404 498 -517 727 -66
133 -117 289 -106 319 4 9 36 16 94 20 234 19 638 78 928 137 675 137 1363
396 1774 667 320 211 466 522 448 951 -10 235 -59 452 -180 806 -43 127 -112
329 -154 450 -41 121 -96 265 -123 320 -91 186 -212 345 -356 466 -308 259
-652 390 -1345 514 -140 25 -324 60 -409 76 -477 95 -673 218 -710 449 -13 83
-13 355 0 535 34 463 139 691 375 812 44 23 154 64 245 93 91 28 230 72 310
97 249 78 478 179 662 294 44 27 83 49 87 49 4 0 17 -33 29 -74 17 -59 30 -83
66 -118 78 -79 253 -148 466 -185 119 -21 453 -23 590 -4 663 92 1307 398
1729 822 214 216 339 407 444 684 25 66 48 127 52 137 5 13 -25 6 -147 -33
-267 -86 -467 -128 -758 -161 -174 -19 -678 -16 -865 6 -412 48 -783 140
-1085 269 l-105 45 1 39 c0 21 6 106 14 188 21 246 2 546 -51 775 -51 224
-160 471 -272 620 -159 209 -404 384 -623 442 -24 7 -44 15 -44 19 0 13 157
156 250 229 228 177 603 395 774 450 l39 12 -6 95 c-3 52 -7 96 -9 98 -2 2
-55 12 -118 22 -87 13 -174 18 -355 18 -227 0 -332 -9 -498 -42 l-29 -6 24 39
25 39 127 5 127 5 -128 91 c-70 50 -138 97 -151 103 -37 19 -112 27 -171 19z
m-231 -373 c-7 -8 -17 -15 -22 -15 -11 0 14 29 26 30 5 0 3 -7 -4 -15z m940
-89 c0 -2 -37 -26 -82 -52 -368 -211 -681 -480 -773 -662 -32 -64 -32 -70 8
-80 27 -7 17 -10 -73 -21 -58 -7 -121 -16 -140 -20 l-35 -8 45 -6 c25 -3 95
-13 155 -21 165 -23 371 -87 475 -149 338 -200 540 -577 591 -1102 19 -201 5
-511 -36 -750 l-7 -40 119 -57 c279 -134 587 -234 905 -292 603 -112 1189
-109 1738 8 36 8 67 12 69 10 6 -6 -86 -142 -149 -219 -64 -78 -233 -244 -295
-290 -22 -17 -46 -36 -53 -43 -22 -20 -193 -136 -257 -174 -250 -147 -519
-258 -798 -329 -255 -64 -428 -84 -661 -76 -210 8 -266 17 -416 69 -120 42
-140 60 -169 149 -20 61 -32 82 -80 129 -31 30 -74 65 -97 77 l-40 22 -53 -39
c-223 -168 -536 -310 -926 -420 -355 -101 -504 -175 -637 -319 -145 -156 -225
-388 -258 -746 -16 -171 -13 -606 5 -688 16 -75 52 -162 85 -205 165 -212 388
-307 960 -407 175 -31 393 -72 559 -106 202 -41 457 -127 621 -209 250 -126
433 -293 562 -513 54 -94 79 -152 129 -303 23 -71 77 -227 120 -347 95 -264
157 -468 195 -642 27 -120 29 -146 29 -335 0 -186 -2 -212 -23 -280 -77 -247
-204 -385 -497 -540 -44 -24 -89 -48 -100 -55 -11 -7 -81 -40 -155 -74 -632
-291 -1424 -480 -2325 -555 -556 -47 -1427 -41 -1995 14 -1082 104 -2024 300
-2895 600 -772 266 -1073 447 -1553 935 -281 285 -446 482 -949 1130 -111 143
-206 265 -210 270 -5 6 -31 39 -58 75 -27 36 -61 79 -75 96 -14 18 -39 49 -56
70 -17 22 -71 89 -120 149 -134 168 -316 384 -427 508 -121 135 -363 392 -396
421 -14 12 -77 70 -140 130 -64 59 -132 120 -151 135 -19 14 -64 50 -99 80
-172 144 -425 315 -634 429 l-128 69 163 66 c172 69 315 132 488 214 168 80
320 153 385 185 98 48 346 158 405 180 30 11 69 26 85 33 32 13 233 79 275 89
98 25 234 49 340 61 405 48 861 -31 1402 -241 76 -30 210 -71 298 -93 88 -22
185 -51 216 -65 98 -45 208 -141 432 -377 204 -216 487 -422 777 -564 294
-144 569 -225 930 -272 193 -25 835 -25 1095 1 331 32 845 96 925 115 211 51
533 195 723 323 185 125 235 215 332 610 114 463 211 1080 214 1363 2 267 -14
295 -319 570 -300 270 -452 488 -522 750 -23 87 -26 120 -27 255 -1 209 23
316 114 507 194 408 606 755 1104 929 60 21 105 39 99 41 -6 2 -82 -5 -169
-17 -88 -11 -161 -20 -165 -20 -15 0 -8 81 11 112 11 18 20 46 20 61 0 15 9
37 19 48 11 12 33 47 50 79 18 33 40 62 51 65 14 4 20 15 20 36 0 36 29 90
119 221 l66 97 21 -48 c35 -79 103 -103 172 -61 18 11 39 20 46 20 7 0 20 15
27 33 7 17 50 69 95 113 75 75 138 116 213 139 23 7 24 5 18 -27 -3 -24 2 -48
19 -84 13 -27 24 -56 24 -64 0 -12 16 -16 73 -18 64 -2 75 1 100 22 15 13 27
31 27 39 0 25 34 42 160 81 125 40 272 72 390 85 79 9 310 14 310 7z m-1902
-10946 c4 -75 35 -186 84 -300 35 -82 56 -124 112 -224 47 -84 212 -317 311
-441 129 -162 384 -424 505 -521 167 -134 306 -212 408 -228 24 -3 100 0 170
8 70 8 179 20 242 26 1271 125 2006 303 2595 627 164 91 408 297 490 413 11
17 23 30 28 30 4 0 7 -24 7 -54 0 -30 5 -89 11 -131 30 -218 118 -349 279
-413 60 -24 178 -52 223 -52 58 0 22 -16 -85 -39 -418 -87 -609 -218 -649
-448 -11 -60 -1 -168 18 -221 7 -18 129 -153 317 -352 39 -41 80 -86 91 -100
l20 -25 -20 16 c-52 40 -150 123 -255 214 -373 325 -568 465 -704 507 -63 19
-84 20 -236 15 -199 -8 -479 -36 -776 -78 -121 -17 -248 -34 -284 -39 -36 -5
-112 -16 -170 -25 -627 -94 -846 -115 -1192 -115 -327 0 -513 25 -743 102
-333 110 -623 342 -833 668 -122 188 -248 467 -331 730 -46 147 -76 237 -115
345 -13 39 -28 91 -31 118 l-7 47 258 -2 259 -3 3 -55z m-8989 -1614 c390
-217 680 -340 894 -381 45 -9 135 -15 210 -15 148 0 352 -20 532 -50 220 -38
728 -157 720 -170 -2 -4 -35 -10 -72 -14 -113 -12 -683 -158 -743 -190 -14 -8
-88 -37 -165 -66 -516 -189 -937 -435 -1243 -724 -34 -33 -64 -57 -67 -54 -3
3 35 86 85 185 93 188 221 390 335 531 38 47 64 87 59 92 -5 4 -69 18 -142 31
-130 22 -134 22 -260 6 -70 -9 -192 -28 -272 -42 -149 -27 -220 -28 -273 -4
-31 14 -84 110 -94 172 -5 32 -2 40 25 65 97 91 451 91 781 1 41 -11 77 -16
81 -12 9 10 70 169 70 181 0 19 -88 90 -121 97 -22 5 -58 30 -104 74 -38 36
-122 114 -185 172 -223 206 -208 192 -176 179 16 -6 73 -35 125 -64z"/>
<path d="M11858 15583 c12 -2 32 -2 45 0 12 2 2 4 -23 4 -25 0 -35 -2 -22 -4z"/>
<path d="M12103 15583 c9 -2 23 -2 30 0 6 3 -1 5 -18 5 -16 0 -22 -2 -12 -5z"/>
<path d="M11768 15563 c6 -2 18 -2 25 0 6 3 1 5 -13 5 -14 0 -19 -2 -12 -5z"/>
<path d="M11690 15540 c-8 -5 -10 -10 -5 -10 6 0 17 5 25 10 8 5 11 10 5 10
-5 0 -17 -5 -25 -10z"/>
<path d="M11574 15485 c-33 -19 -71 -47 -85 -62 -22 -24 -20 -24 17 5 23 18
67 45 99 62 31 16 51 30 44 30 -8 -1 -41 -16 -75 -35z"/>
<path d="M11295 15220 c-9 -16 -13 -30 -11 -30 3 0 12 14 21 30 9 17 13 30 11
30 -3 0 -12 -13 -21 -30z"/>
<path d="M11928 15149 c-114 -16 -243 -111 -297 -217 -27 -53 -51 -145 -51
-197 0 -137 79 -282 192 -356 85 -55 186 -77 279 -61 260 45 416 296 339 545
-61 196 -255 317 -462 286z m179 -55 c49 -16 103 -58 103 -80 0 -9 -26 -11
-97 -9 -139 5 -297 16 -302 21 -14 13 63 66 114 77 46 11 138 6 182 -9z m-97
-244 c0 -5 -8 -10 -17 -10 -15 0 -16 2 -3 10 19 12 20 12 20 0z"/>
<path d="M11231 15104 c0 -11 3 -14 6 -6 3 7 2 16 -1 19 -3 4 -6 -2 -5 -13z"/>
<path d="M11181 14964 c0 -11 3 -14 6 -6 3 7 2 16 -1 19 -3 4 -6 -2 -5 -13z"/>
<path d="M5050 10848 c0 -6 264 -193 313 -222 18 -11 99 -48 181 -83 172 -74
220 -100 261 -144 17 -17 68 -50 115 -74 133 -67 260 -148 260 -164 0 -5 -26
-11 -57 -15 -92 -11 -324 -70 -508 -130 -191 -61 -336 -103 -473 -136 -51 -12
-94 -26 -97 -30 -8 -12 180 -176 228 -199 74 -36 139 -42 347 -35 229 7 324
-5 478 -62 103 -38 402 -184 402 -195 0 -4 -111 -7 -247 -6 -189 2 -247 -1
-250 -10 -3 -8 -21 -13 -44 -13 -48 0 -81 -20 -110 -66 -18 -30 -20 -44 -14
-91 10 -80 11 -81 74 -99 326 -90 557 -187 926 -392 94 -52 202 -113 240 -136
39 -23 104 -62 145 -86 41 -23 87 -51 102 -61 15 -11 29 -19 31 -19 2 0 42
-22 88 -48 609 -350 1016 -484 1469 -484 190 0 324 17 515 66 482 124 786 340
957 681 45 88 92 237 108 336 16 99 8 379 -14 474 -29 128 -77 262 -135 377
-55 109 -58 113 -116 146 -33 18 -88 55 -122 82 -35 26 -107 67 -160 90 -87
37 -106 50 -173 119 -80 83 -164 138 -263 173 -72 26 -170 28 -689 13 -317 -8
-474 -1 -773 36 -223 27 -599 94 -885 158 -485 108 -957 190 -1295 226 -141
15 -815 34 -815 23z m1100 -274 c193 -27 602 -104 945 -179 192 -42 615 -122
760 -144 374 -57 742 -77 1070 -59 343 19 467 17 537 -11 78 -30 158 -103 158
-143 0 -22 13 -44 48 -83 48 -52 48 -54 61 -151 16 -126 22 -154 31 -154 5 0
123 156 162 214 4 6 10 8 13 4 3 -3 -7 -42 -22 -86 -15 -44 -25 -83 -22 -87 4
-3 46 10 94 30 117 47 129 42 184 -75 89 -190 126 -368 118 -565 -11 -258 -94
-456 -263 -628 -178 -181 -431 -298 -809 -374 -129 -25 -470 -25 -609 1 -349
64 -661 198 -1216 523 -47 28 -157 92 -245 143 -88 51 -182 106 -209 122 -59
35 -447 229 -496 248 -32 12 -20 14 153 21 104 4 204 13 222 19 61 20 91 99
64 167 -7 15 -15 44 -18 63 -6 34 -11 37 -246 157 -394 200 -561 264 -739 279
-39 4 -77 10 -84 14 -8 4 36 20 105 38 235 62 256 65 451 65 100 0 182 1 182
2 0 2 -7 38 -16 81 -38 186 -140 292 -434 454 -102 57 -169 104 -170 121 0 7
5 6 240 -27z"/>
</g>
</svg>
